<svg width="399" height="412" viewBox="0 0 399 412" fill="none" xmlns="http://www.w3.org/2000/svg">
<path d="M201.809 24.1168C231 41.9996 240 56 240 158C211.78 124.788 212.199 107.229 154.666 98.5864C66.6145 85.3595 146.336 52.2298 86.1539 44.5976C114.796 16.7426 172.617 6.23404 201.809 24.1168Z" fill="#EAF2E5"/>
<path fill-rule="evenodd" clip-rule="evenodd" d="M256.942 409C260.855 385.877 262.959 361.783 262.959 337.867C262.959 225.024 216.123 158.9 153.403 158.9C110.537 158.9 73.2187 201.63 53.8877 264.707C75.4112 235.015 103.429 217.064 134.064 217.064C200.92 217.064 255.309 302.552 256.942 409Z" fill="#EAF2E5"/>
<path fill-rule="evenodd" clip-rule="evenodd" d="M259.543 354.775C257.152 329.646 255.871 303.575 255.871 277.689C255.871 149.228 287.416 73.9534 329.66 73.9534C358.765 73.9534 384.073 123.388 397 196.152C382.408 161.308 363.245 140.167 342.257 140.167C297.711 140.167 261.382 235.41 259.543 354.775Z" fill="#EAF2E5"/>
<path d="M260.886 339.143C260.886 363.058 260.188 388.152 256.275 411.275C254.642 304.827 198.848 218.34 131.992 218.34C104.109 218.34 78.3953 233.209 57.7721 258.267C78.9305 220.8 114.845 196.152 155.591 196.152C193.799 196.152 210.228 209.229 231.757 242.822C242.893 264.903 260.886 305.605 260.886 339.143Z" fill="#CDD7C7"/>
<path d="M389.633 169.263C392.345 179.728 395.942 190.918 398.039 202.722C383.447 167.878 363.11 146.737 342.123 146.737C300.489 146.737 266.208 266.743 260.378 375.069C259.236 362.542 260.378 299.908 260.378 286.569C260.378 185.565 292.952 116.5 335.499 116.5C356.6 116.5 375.72 136.639 389.633 169.263Z" fill="#CDD7C7"/>
<path d="M88 43.0001C130.037 29.9777 120.966 45.7415 126.791 59.3773C132.247 72.1522 143.844 80.0382 180.833 75.0001C194.003 73.2061 220.325 99.0694 229.158 116.5C240.59 132.069 250.241 203.384 256.276 267.754C254.801 267.706 250.463 242.822 250.463 242.822C251.281 252.021 249.365 235.702 250.463 242.822C245.837 190.798 237.675 113.311 152.146 98.262C106.147 90.1684 107.407 77.8363 108.527 66.8686C109.401 58.3024 109.877 47.2323 88 43.0001Z" fill="#CDD7C7"/>
</svg>
