<svg width="40" height="40" viewBox="0 0 131 131" fill="none" xmlns="http://www.w3.org/2000/svg">
<circle cx="65.2767" cy="65.277" r="60.277" stroke="#7DC752" stroke-width="10"/>
<path fill-rule="evenodd" clip-rule="evenodd" d="M85.7128 28.0471C89.4968 30.544 89.4968 36.0958 85.7128 38.5926L70.3352 48.7392C66.1352 51.5105 60.5389 48.4984 60.5389 43.4665V36.5186C44.4101 37.3404 31.5854 50.6781 31.5854 67.0112C31.5854 75.011 34.662 82.2922 39.6965 87.7362C38.57 89.7299 37.7441 91.916 37.2803 94.2328C29.8991 87.4941 25.2683 77.7934 25.2683 67.0112C25.2683 47.1887 40.9199 31.0218 60.5389 30.1946L60.5389 23.1733C60.5389 18.1414 66.1352 15.1293 70.3352 17.9006L85.7128 28.0471Z" fill="#8abe6b"/>
<path d="M85.7128 38.5926L84.8867 37.3406L84.8867 37.3406L85.7128 38.5926ZM85.7128 28.0471L86.5389 26.7951L86.5389 26.7951L85.7128 28.0471ZM70.3352 48.7392L71.1613 49.9912L71.1613 49.9912L70.3352 48.7392ZM60.5389 36.5186H62.0389V34.9402L60.4626 35.0205L60.5389 36.5186ZM39.6965 87.7362L41.0024 88.4741L41.5408 87.5213L40.7978 86.7178L39.6965 87.7362ZM37.2803 94.2328L36.2689 95.3405L38.2299 97.1308L38.7511 94.5272L37.2803 94.2328ZM60.5389 30.1946L60.6021 31.6932L62.0389 31.6326L62.0389 30.1946L60.5389 30.1946ZM60.5389 23.1733L59.0389 23.1733L60.5389 23.1733ZM70.3352 17.9006L69.5091 19.1526L69.5091 19.1526L70.3352 17.9006ZM86.5389 39.8447C91.2214 36.755 91.2214 29.8848 86.5389 26.7951L84.8867 29.2992C87.7722 31.2031 87.7722 35.4367 84.8867 37.3406L86.5389 39.8447ZM71.1613 49.9912L86.5389 39.8447L84.8867 37.3406L69.5091 47.4872L71.1613 49.9912ZM59.0389 43.4665C59.0389 49.6932 65.964 53.4205 71.1613 49.9912L69.5091 47.4872C66.3064 49.6004 62.0389 47.3035 62.0389 43.4665H59.0389ZM59.0389 36.5186V43.4665H62.0389V36.5186H59.0389ZM33.0854 67.0112C33.0854 51.481 45.2801 38.798 60.6153 38.0167L60.4626 35.0205C43.5402 35.8828 30.0854 49.8753 30.0854 67.0112H33.0854ZM40.7978 86.7178C36.0095 81.5401 33.0854 74.6188 33.0854 67.0112H30.0854C30.0854 75.4032 33.3145 83.0444 38.5952 88.7547L40.7978 86.7178ZM38.7511 94.5272C39.1832 92.3688 39.9526 90.3322 41.0024 88.4741L38.3905 86.9984C37.1874 89.1277 36.305 91.4631 35.8095 93.9383L38.7511 94.5272ZM23.7683 67.0112C23.7683 78.2324 28.5895 88.3296 36.2689 95.3405L38.2916 93.125C31.2086 86.6585 26.7683 77.3545 26.7683 67.0112H23.7683ZM60.4758 28.6959C40.057 29.5568 23.7683 46.3814 23.7683 67.0112H26.7683C26.7683 47.996 41.7828 32.4867 60.6021 31.6932L60.4758 28.6959ZM59.0389 23.1733L59.0389 30.1946L62.0389 30.1946L62.0389 23.1733L59.0389 23.1733ZM71.1613 16.6485C65.964 13.2192 59.0389 16.9466 59.0389 23.1733H62.0389C62.0389 19.3362 66.3064 17.0393 69.5091 19.1526L71.1613 16.6485ZM86.5389 26.7951L71.1613 16.6485L69.5091 19.1526L84.8867 29.2992L86.5389 26.7951Z" fill="#8abe6b"/>
<path fill-rule="evenodd" clip-rule="evenodd" d="M44.9518 104.088C41.1678 101.592 41.1677 96.0398 44.9518 93.543L60.3294 83.3964C64.5294 80.6251 70.1256 83.6372 70.1256 88.6691V95.617C86.2544 94.7952 99.0791 81.4575 99.0791 65.1244C99.0791 57.1246 96.0025 49.8433 90.9681 44.3993C92.0945 42.4056 92.9204 40.2196 93.3843 37.9028C100.765 44.6415 105.396 54.3422 105.396 65.1244C105.396 84.9469 89.7447 101.114 70.1256 101.941V108.962C70.1256 113.994 64.5294 117.006 60.3294 114.235L44.9518 104.088Z" fill="#8abe6b"/>
<path d="M44.9518 93.543L45.7779 94.795L45.7779 94.795L44.9518 93.543ZM44.9518 104.088L44.1257 105.34L44.1257 105.34L44.9518 104.088ZM60.3294 83.3964L59.5033 82.1444L59.5033 82.1444L60.3294 83.3964ZM70.1256 95.617H68.6256V97.1954L70.2019 97.115L70.1256 95.617ZM90.9681 44.3993L89.6621 43.6615L89.1237 44.6143L89.8668 45.4178L90.9681 44.3993ZM93.3843 37.9028L94.3956 36.795L92.4347 35.0048L91.9134 37.6084L93.3843 37.9028ZM70.1256 101.941L70.0624 100.442L68.6256 100.503V101.941H70.1256ZM60.3294 114.235L61.1555 112.983L61.1555 112.983L60.3294 114.235ZM44.1257 92.2909C39.4431 95.3806 39.4431 102.251 44.1257 105.34L45.7779 102.836C42.8924 100.932 42.8924 96.6989 45.7779 94.795L44.1257 92.2909ZM59.5033 82.1444L44.1257 92.2909L45.7779 94.795L61.1555 84.6484L59.5033 82.1444ZM71.6256 88.6691C71.6256 82.4424 64.7005 78.715 59.5033 82.1444L61.1555 84.6484C64.3582 82.5351 68.6256 84.8321 68.6256 88.6691H71.6256ZM71.6256 95.617V88.6691H68.6256V95.617H71.6256ZM97.5791 65.1244C97.5791 80.6546 85.3845 93.3376 70.0493 94.1189L70.2019 97.115C87.1244 96.2528 100.579 82.2603 100.579 65.1244H97.5791ZM89.8668 45.4178C94.6551 50.5955 97.5791 57.5168 97.5791 65.1244H100.579C100.579 56.7324 97.35 49.0912 92.0693 43.3809L89.8668 45.4178ZM91.9134 37.6084C91.4813 39.7667 90.7119 41.8034 89.6621 43.6615L92.274 45.1372C93.4771 43.0079 94.3595 40.6725 94.8551 38.1973L91.9134 37.6084ZM106.896 65.1244C106.896 53.9032 102.075 43.806 94.3956 36.795L92.3729 39.0106C99.4559 45.4771 103.896 54.7811 103.896 65.1244H106.896ZM70.1888 103.44C90.6076 102.579 106.896 85.7542 106.896 65.1244H103.896C103.896 84.1396 88.8818 99.6489 70.0624 100.442L70.1888 103.44ZM71.6256 108.962V101.941H68.6256V108.962H71.6256ZM59.5033 115.487C64.7005 118.916 71.6256 115.189 71.6256 108.962H68.6256C68.6256 112.799 64.3582 115.096 61.1555 112.983L59.5033 115.487ZM44.1257 105.34L59.5033 115.487L61.1555 112.983L45.7779 102.836L44.1257 105.34Z" fill="#7DC752"/>
</svg>
