<svg width="139" height="230" viewBox="0 0 139 230" fill="none" xmlns="http://www.w3.org/2000/svg">
<path fill-rule="evenodd" clip-rule="evenodd" d="M69.5 230C107.884 230 139 197.765 139 158.001C139 118.456 120.734 90.0241 101.843 60.6181C89.7893 41.8551 77.4808 22.6957 69.5 0C61.7443 22.3 49.3116 42.5327 37.0911 62.4199C18.2944 93.0091 0 122.781 0 158.001C0 197.765 31.1162 230 69.5 230ZM51.8091 133.637C61.3469 133.637 69.0788 125.293 69.0788 115C69.0788 104.708 61.3469 96.3638 51.8091 96.3638C42.2713 96.3638 34.5394 104.708 34.5394 115C34.5394 125.293 42.2713 133.637 51.8091 133.637Z" fill="black" fill-opacity="0.25"/>
</svg>
