<svg width="421" height="899" viewBox="0 0 421 899" fill="none" xmlns="http://www.w3.org/2000/svg">
<path d="M349 677C339 800 349 698 226.5 771C92 716 117 782 101 677C101 654.909 158.293 646 226.5 646C294.707 646 349 654.909 349 677Z" fill="#76604B"/>
<path d="M341 723C341 761.66 289.885 768 233 768C176.115 768 109 761.66 109 723C109 684.34 166.115 647 223 647C279.885 647 341 684.34 341 723Z" fill="#76604B"/>
<path d="M327 734C307 890 318 891 226.5 899C136 890 148 876 124 734C124 669.659 162.571 762 212 762C261.429 762 357.602 617.5 327 734Z" fill="#76604B"/>
<g filter="url(#filter0_i_225_413)">
<path d="M185 103C177 148 173 171 136 171C110.043 171 89 144.137 89 111C89 77.8629 136 0 219 0C244.957 0 253 27 185 103Z" fill="#D9D9D9"/>
<path d="M319 107C279 140 296 72 214 79C169 107 127 101.899 127 66C127 30.1015 192.578 0 234 0C292 0 382 40 319 107Z" fill="#D9D9D9"/>
<path d="M385.999 152C385.999 209 351 267 321 248C219 210 258 257 297 185C318.001 124 238 47 291 47C284 -11 385.999 51 385.999 152Z" fill="#D9D9D9"/>
<path d="M361 204C377 271 253 288 253 314C253 333.416 217 338 205 314C195 275 235 240 268 224C300 191 361 173.9 361 204Z" fill="#D9D9D9"/>
<path d="M253 367.5C253 382.136 244.136 406 229.5 406C214.864 406 203 382.136 203 367.5C203 352.864 214.864 345 229.5 345C244.136 345 253 352.864 253 367.5Z" fill="#D9D9D9"/>
</g>
<path d="M375 408C340 457 297.719 457 269 457C253 415 266 398.825 294 369C340.001 320 376 304 402.999 297C402.999 347 395 380 375 408Z" fill="#A7AEA2"/>
<path d="M362 567C310.308 597.885 269.316 588.5 243 577C245.157 532.108 257.4 502.118 295 486C356.773 459.52 392.542 476.516 420.085 480.913C400.064 526.73 391.538 549.351 362 567Z" fill="#A7AEA2"/>
<path d="M169 312C198.997 364.213 185.948 415.885 174 442C129.151 439.076 69.9996 418 55.9998 367C30.5791 304.784 55.9997 245 69.9995 232C115.467 252.801 151.859 282.164 169 312Z" fill="#A7AEA2"/>
<path d="M142 493C184 520.367 198.772 577.307 200 606C148 606 116 617 64.0001 567C26.9166 531.343 31 476 13 447C64.0001 455 113.171 474.215 142 493Z" fill="#A7AEA2"/>
<path d="M261.146 472.683C246.804 486.829 244.309 490.732 226.226 500C211.983 487 249.298 475.61 253.04 468.78C261.146 462.927 358.511 351.341 370.983 345C370.983 351.829 265.511 464.39 261.146 472.683Z" fill="#4C5945"/>
<path d="M275 562C260.658 576.146 238 588 226.226 601C211.983 588 249.298 576.61 253.04 569.78C301 532 345.528 516.341 358 510C358 516.829 279.365 553.707 275 562Z" fill="#4C5945"/>
<path d="M168 423C183 442 202 469 224 483C224 507 183.051 448.135 174.6 443.94C126.231 387.261 104 333 94.5002 302.5C115 336 157.749 418.124 168 423Z" fill="#4C5945"/>
<path d="M128.5 552C135.437 559 214.83 609 222 625C231.814 646.902 172 583.897 137 567C120.429 559 86.1408 513.067 64.9997 489.118C97.4059 511.307 115.5 538.882 128.5 552Z" fill="#4C5945"/>
<path d="M335 676.5C335 689 284 700 225 700C166 700 132 691 115 676.5C125 657 164.249 652 225 652C285.751 652 335 657 335 676.5Z" fill="#413223"/>
<path d="M315 758C284 777 229 775 195 775C140 764 141.143 758 130 752C156 766 190 768 208 768C251.29 768 288 766 315 758Z" fill="#413223"/>
<path d="M228.999 557C225 606 232.717 672.291 228.999 677C214 696 212.542 581.958 213.999 557C218 488.5 218.5 413 222 416C232.5 416 228.999 487.964 228.999 557Z" fill="#4C5945"/>
<defs>
<filter id="filter0_i_225_413" x="83" y="-6" width="302.999" height="412" filterUnits="userSpaceOnUse" color-interpolation-filters="sRGB">
<feFlood flood-opacity="0" result="BackgroundImageFix"/>
<feBlend mode="normal" in="SourceGraphic" in2="BackgroundImageFix" result="shape"/>
<feColorMatrix in="SourceAlpha" type="matrix" values="0 0 0 0 0 0 0 0 0 0 0 0 0 0 0 0 0 0 127 0" result="hardAlpha"/>
<feOffset dx="-7" dy="-7"/>
<feGaussianBlur stdDeviation="3"/>
<feComposite in2="hardAlpha" operator="arithmetic" k2="-1" k3="1"/>
<feColorMatrix type="matrix" values="0 0 0 0 0 0 0 0 0 0 0 0 0 0 0 0 0 0 0.25 0"/>
<feBlend mode="normal" in2="shape" result="effect1_innerShadow_225_413"/>
</filter>
</defs>
</svg>
