<svg width="272" height="272" viewBox="0 0 272 272" fill="none" xmlns="http://www.w3.org/2000/svg">
<path fill-rule="evenodd" clip-rule="evenodd" d="M129.63 80.7963C108.723 31.0028 82.5213 -4.64039 71.106 1.18506L122.837 124.396L1.06401 73.2679L1.06398 73.2679C-4.76147 84.6832 30.8817 110.885 80.6752 131.791C99.5541 139.718 117.757 145.745 133.399 149.552L138.999 162.888C136.08 163.108 133.25 163.878 130.574 165.243C113.255 174.082 108.989 204.529 121.048 233.249C133.106 261.969 156.922 278.085 174.241 269.247C191.561 260.408 195.827 229.961 183.768 201.241C176.285 183.418 164.274 170.449 152.098 165.286C152.087 161.688 151.774 157.594 151.174 153.085C155.788 153.76 159.997 154.15 163.722 154.24C167.902 167.413 181.505 180.811 200.79 188.909C229.51 200.967 259.957 196.702 268.795 179.382C277.634 162.062 261.517 138.246 232.797 126.188C204.077 114.13 173.63 118.395 164.792 135.715C163.89 137.481 163.249 139.315 162.853 141.197L147.706 134.837C143.922 118.903 137.779 100.207 129.63 80.7963ZM249.028 171.515C254.553 160.69 244.215 145.695 225.939 138.021C207.662 130.348 188.368 132.902 182.844 143.727C177.32 154.552 187.658 169.548 205.934 177.221C224.21 184.895 243.504 182.34 249.028 171.515ZM132.881 226.39C140.554 244.666 155.55 255.004 166.375 249.48C177.2 243.956 179.754 224.662 172.081 206.385C164.407 188.109 149.412 177.771 138.587 183.295C127.762 188.82 125.207 208.114 132.881 226.39Z" fill="black" fill-opacity="0.25"/>
</svg>
