<svg width="106" height="106" viewBox="0 0 106 106" fill="none" xmlns="http://www.w3.org/2000/svg">
<path fill-rule="evenodd" clip-rule="evenodd" d="M55.8422 55.8446C66.1297 45.5571 66.1297 28.8777 55.8422 18.5902C45.5547 8.30266 28.8753 8.30266 18.5877 18.5902C8.30022 28.8777 8.30022 45.5571 18.5877 55.8446C28.8753 66.1322 45.5547 66.1322 55.8422 55.8446ZM62.9133 11.5191C74.7024 23.3083 76.699 41.1818 68.9029 55.0318C69.2411 55.2648 69.5762 55.5226 69.907 55.8063L101.561 82.951C105.983 86.7423 106.241 93.4948 102.123 97.6131L97.6132 102.123C93.4948 106.241 86.7423 105.983 82.951 101.561L55.8063 69.907C55.5228 69.5764 55.2652 69.2416 55.0324 68.9036C41.182 76.7017 23.3067 74.7057 11.5167 62.9157C-2.67609 48.7229 -2.67609 25.7119 11.5167 11.5191C25.7095 -2.67365 48.7205 -2.67365 62.9133 11.5191ZM38.0536 19.9756C40.3286 22.2507 40.3286 25.9392 38.0536 28.2142C35.7786 30.4892 32.0901 30.4892 29.8151 28.2142C27.5401 25.9392 27.5401 22.2507 29.8151 19.9756C32.0901 17.7006 35.7786 17.7006 38.0536 19.9756ZM41.5892 16.4401C45.8168 20.6677 45.8168 27.5221 41.5892 31.7497C37.3615 35.9774 30.5072 35.9774 26.2795 31.7497C22.0519 27.5221 22.0519 20.6677 26.2795 16.4401C30.5072 12.2125 37.3615 12.2125 41.5892 16.4401Z" fill="#4C5945" fill-opacity="0.75"/>
</svg>
