<svg width="40" height="40" viewBox="0 0 62 62" fill="none" xmlns="http://www.w3.org/2000/svg">
<circle cx="31" cy="31" r="29.5" stroke="#CFAA64" stroke-width="3"/>
<path fill-rule="evenodd" clip-rule="evenodd" d="M14.5108 16.3225L42.1878 12.0814C42.7337 11.9977 43.2441 12.3725 43.3277 12.9184L48.3261 45.5376C48.4098 46.0835 48.0351 46.5939 47.4892 46.6776L19.8122 50.9187C19.2663 51.0023 18.7559 50.6276 18.6723 50.0817L13.6738 17.4624C13.5902 16.9165 13.9649 16.4061 14.5108 16.3225ZM12.6854 17.6139C12.5181 16.5221 13.2675 15.5013 14.3594 15.334L42.0363 11.0929C43.1281 10.9256 44.1489 11.6751 44.3162 12.7669L49.3146 45.3862C49.4819 46.478 48.7324 47.4987 47.6406 47.666L19.9637 51.9071C18.8719 52.0744 17.8511 51.325 17.6838 50.2331L12.6854 17.6139ZM17.7792 17.845C16.6873 18.0123 15.9379 19.033 16.1052 20.1249L19.286 40.8826C19.4533 41.9744 20.474 42.7239 21.5659 42.5566L43.312 39.2243C44.4038 39.057 45.1533 38.0362 44.986 36.9444L41.8052 16.1867C41.6379 15.0949 40.6172 14.3454 39.5253 14.5127L17.7792 17.845Z" fill="#E8DDCA"/>
<path d="M42.0742 11.34L14.3972 15.5811L14.6244 17.0638L42.3014 12.8227L42.0742 11.34ZM44.0691 12.8048C43.9227 11.8494 43.0295 11.1937 42.0742 11.34L42.3014 12.8227C42.4379 12.8018 42.5655 12.8955 42.5864 13.032L44.0691 12.8048ZM49.0675 45.424L44.0691 12.8048L42.5864 13.032L47.5848 45.6512L49.0675 45.424ZM47.6028 47.4189C48.5581 47.2725 49.2139 46.3794 49.0675 45.424L47.5848 45.6512C47.6057 45.7877 47.512 45.9153 47.3756 45.9362L47.6028 47.4189ZM19.9258 51.66L47.6028 47.4189L47.3756 45.9362L19.6986 50.1773L19.9258 51.66ZM17.9309 50.1953C18.0773 51.1506 18.9705 51.8064 19.9258 51.66L19.6986 50.1773C19.5621 50.1982 19.4345 50.1045 19.4136 49.9681L17.9309 50.1953ZM12.9325 17.576L17.9309 50.1953L19.4136 49.9681L14.4152 17.3488L12.9325 17.576ZM14.3972 15.5811C13.4419 15.7275 12.7861 16.6207 12.9325 17.576L14.4152 17.3488C14.3943 17.2123 14.488 17.0847 14.6244 17.0638L14.3972 15.5811ZM14.2458 14.5927C12.7445 14.8227 11.714 16.2262 11.944 17.7275L13.4267 17.5003C13.3222 16.8179 13.7906 16.1799 14.473 16.0754L14.2458 14.5927ZM41.9227 10.3516L14.2458 14.5927L14.473 16.0754L42.1499 11.8343L41.9227 10.3516ZM45.0575 12.6533C44.8275 11.1521 43.424 10.1215 41.9227 10.3516L42.1499 11.8343C42.8323 11.7297 43.4703 12.1981 43.5748 12.8805L45.0575 12.6533ZM50.056 45.2726L45.0575 12.6533L43.5748 12.8805L48.5733 45.4998L50.056 45.2726ZM47.7542 48.4074C49.2555 48.1773 50.286 46.7738 50.056 45.2726L48.5733 45.4998C48.6778 46.1822 48.2094 46.8201 47.527 46.9247L47.7542 48.4074ZM20.0773 52.6485L47.7542 48.4074L47.527 46.9247L19.8501 51.1658L20.0773 52.6485ZM16.9425 50.3467C17.1725 51.848 18.576 52.8785 20.0773 52.6485L19.8501 51.1658C19.1677 51.2703 18.5297 50.8019 18.4252 50.1195L16.9425 50.3467ZM11.944 17.7275L16.9425 50.3467L18.4252 50.1195L13.4267 17.5003L11.944 17.7275ZM16.8465 20.0113C16.742 19.3289 17.2104 18.6909 17.8928 18.5864L17.6656 17.1037C16.1643 17.3337 15.1338 18.7372 15.3638 20.2385L16.8465 20.0113ZM20.0273 40.769L16.8465 20.0113L15.3638 20.2385L18.5446 40.9962L20.0273 40.769ZM21.4523 41.8152C20.7699 41.9198 20.1319 41.4514 20.0273 40.769L18.5446 40.9962C18.7747 42.4974 20.1782 43.528 21.6795 43.2979L21.4523 41.8152ZM43.1984 38.4829L21.4523 41.8152L21.6795 43.2979L43.4256 39.9656L43.1984 38.4829ZM44.2447 37.058C44.3492 37.7404 43.8808 38.3784 43.1984 38.4829L43.4256 39.9656C44.9269 39.7356 45.9574 38.3321 45.7274 36.8308L44.2447 37.058ZM41.0638 16.3003L44.2447 37.058L45.7274 36.8308L42.5465 16.0731L41.0638 16.3003ZM39.6389 15.2541C40.3213 15.1495 40.9593 15.6179 41.0638 16.3003L42.5465 16.0731C42.3165 14.5718 40.913 13.5413 39.4117 13.7714L39.6389 15.2541ZM17.8928 18.5864L39.6389 15.2541L39.4117 13.7714L17.6656 17.1037L17.8928 18.5864Z" fill="#CFAA64"/>
</svg>
